<svg width="69" height="69" viewBox="0 0 69 69" fill="none" xmlns="http://www.w3.org/2000/svg">
<path d="M60.375 8.62501V14.375C60.375 19.7125 58.2547 24.8314 54.4805 28.6055C50.7064 32.3797 45.5875 34.5 40.25 34.5H37.375V37.375H51.75V57.5C51.75 59.025 51.1442 60.4875 50.0659 61.5659C48.9875 62.6442 47.525 63.25 46 63.25H23C21.475 63.25 20.0125 62.6442 18.9341 61.5659C17.8558 60.4875 17.25 59.025 17.25 57.5V37.375H31.625V28.75C31.625 23.4125 33.7453 18.2937 37.5195 14.5195C41.2936 10.7453 46.4125 8.62501 51.75 8.62501H60.375ZM15.8125 5.75001C19.2624 5.74721 22.6625 6.57336 25.7265 8.1589C28.7905 9.74443 31.4287 12.0429 33.419 14.8609C30.3812 18.853 28.7406 23.7335 28.75 28.75V31.625H27.3125C21.5938 31.625 16.1093 29.3532 12.0655 25.3095C8.02176 21.2657 5.75 15.7812 5.75 10.0625V5.75001H15.8125Z" fill="#184D47"/>
</svg>
