<svg width="369" height="369" viewBox="0 0 369 369" fill="none" xmlns="http://www.w3.org/2000/svg">
<circle cx="184.5" cy="184.5" r="172" stroke="white" stroke-width="25"/>
<line x1="187.5" y1="356" x2="187.5" y2="219" stroke="white" stroke-width="25"/>
<path d="M187 226.5V206.142C187 200.723 186.559 195.313 185.683 189.965L184.509 182.808C182.849 172.681 179.426 162.924 174.395 153.98L172.117 149.93C166.782 140.447 159.266 132.369 150.19 126.367V126.367C138.978 118.953 125.833 115 112.391 115H91.5H74.5M60.5 115H74.5M74.5 115V115C70.9808 128.117 72.8617 142.097 79.7224 153.817L81 156L86.3058 163.36C93.0483 172.712 101.399 180.793 110.968 187.224V187.224C121.553 194.339 133.433 199.304 145.932 201.838L164 205.5" stroke="white" stroke-width="25"/>
<path d="M187 229L200.116 210.638C209.461 197.555 222.736 187.794 238.011 182.775V182.775C245.622 180.274 253.582 179 261.594 179H300H310.5" stroke="white" stroke-width="25"/>
<path d="M221 265.5H222.075C238.852 265.5 255.123 259.759 268.185 249.232V249.232C276.945 242.172 283.966 233.194 288.708 222.992L289.963 220.292C295.257 208.902 298 196.492 298 183.931V172.5" stroke="white" stroke-width="25"/>
</svg>
